# xmcd CD database file
#
# Track frame offsets:
#	150
#	23710
#	50410
#	73652
#	94457
#	113810
#	140702
#	164202
#	191275
#	219835
#	236517
#
# Disc length: 3220 seconds
#
# Revision: 0
# Processed by: cddbd v1.5PL3 Copyright (c) Steve Scherf et al.
# Submitted via: CDex 1.51
#
DISCID=9e0c920b
DTITLE=Rogério Botter Maio - Crescendo
DYEAR=1996
DGENRE=Jazz
TTITLE0=Tranchan
TTITLE1=Rendez-vous
TTITLE2=Voltando ao Fio da Meada
TTITLE3=Verde "Músico"
TTITLE4=Valsa Curitibana
TTITLE5=Bâlão
TTITLE6=Dezembro
TTITLE7=Crescendo
TTITLE8=Quebra-Cabeças
TTITLE9=Muito Prazer!
TTITLE10=Só Isso?
EXTD=YEAR: 1996
EXTT0=
EXTT1=
EXTT2=
EXTT3=
EXTT4=
EXTT5=
EXTT6=
EXTT7=
EXTT8=
EXTT9=
EXTT10=
PLAYORDER=
